<svg xmlns="http://www.w3.org/2000/svg" viewBox="0 0 800 425"><title>TravelersLogo_RGB_REV-ORANGE-tagline</title><path d="M34.94,203.8H0v-28H107.67v28H72.73V317.56H34.94Z" style="fill:#fff"/><path d="M157.85,241c-4.06-1.22-8.13-1.22-12.39-1.22-17.06,0-26.61,12.39-26.61,33.11v44.69H82.28V211.72h33.32v19.5H116c6.3-13.41,15.44-21.94,31.28-21.94a77.73,77.73,0,0,1,12.39,1.22Z" style="fill:#fff"/><path d="M223.66,317.56c-.2-5.69-.81-11.17-.81-16.66h-.41C214.12,314.11,204,320,188.93,320c-20.92,0-39.61-10.36-39.61-33.31,0-32.3,35.14-36.16,54.65-36.16A107.08,107.08,0,0,1,221,251.95c-.2-14.42-11-18.29-24.17-18.29-11.78,0-23.57,2.24-33.72,7.92l-.61-24.78c13-5.28,26.61-7.52,42.25-7.52,27,0,50.38,11.58,50.38,43.88v39.41a129.64,129.64,0,0,0,2,25Zm-25.19-21.94c13.81,0,22.55-12.59,22.55-25-4.67-.21-10-.61-15.44-.61-12.39,0-22.14,3.86-22.14,14C183.44,291.36,189.94,295.62,198.48,295.62Z" style="fill:#fff"/><path d="M249.47,211.72h39.21l21.94,75.37H311l22.14-75.37h36.36L330.32,317.56H288.67Z" style="fill:#fff"/><path d="M398.37,275.31c2,14.62,13.21,20.32,31.08,20.32a68.48,68.48,0,0,0,32.3-8.13v25.8C450,318,436.56,320,423,320c-34.94,0-61.55-20.52-61.55-55.46s23.77-55.26,56.68-55.26c39.21,0,53.43,27.83,53.43,59.32v6.7Zm40.22-20.72c0-12.19-5.69-22.14-20.32-22.14-13.2,0-19.5,10-20.32,22.14Z" style="fill:#fff"/><path d="M477.6,165.21h36.56V317.56H477.6Z" style="fill:#fff"/><path d="M555.81,275.31c2,14.62,13.21,20.32,31.08,20.32a68.48,68.48,0,0,0,32.3-8.13v25.8C607.41,318,594,320,580.39,320c-34.94,0-61.55-20.52-61.55-55.46s23.77-55.26,56.68-55.26c39.21,0,53.43,27.83,53.43,59.32v6.7ZM596,254.59c0-12.19-5.69-22.14-20.32-22.14-13.2,0-19.5,10-20.32,22.14Z" style="fill:#fff"/><path d="M709.39,241c-4.06-1.22-8.12-1.22-12.39-1.22-17.06,0-26.61,12.39-26.61,33.11v44.69H633.82V211.72h33.32v19.5h.41c6.3-13.41,15.44-21.94,31.28-21.94a77.74,77.74,0,0,1,12.39,1.22Z" style="fill:#fff"/><path d="M714.27,288.31a90.53,90.53,0,0,0,34.33,7.31c7.52,0,14.83-1.22,14.83-8.53,0-17.88-52-5.28-52-43.47,0-24.38,24-34.33,45.1-34.33,12.59,0,25.39,1.42,37.18,6.09l-2.84,25.39c-7.72-4.67-19.3-7.11-28.44-7.11-7.92,0-16.86,1.42-16.86,7.31,0,16.45,54.44,3.45,54.44,43.68,0,28.24-25.39,35.35-49.37,35.35-16.45,0-27.63-1.62-38.39-5.08Z" style="fill:#fff"/><polygon points="357 144 357 104 317 104 357 144" style="fill:#ee3e33"/><polygon points="405 104 405 192 501 96 469 64 469 104 405 104" style="fill:#fff"/><polygon points="341 64 469 64 405 0 341 64" style="fill:#fff"/><path d="M244.89,371.45a25.25,25.25,0,0,0-13-3.51c-14.49,0-24.12,10.44-24.12,24.57,0,14.76,10.62,24.57,23.67,24.57,4.5,0,10.53-1.17,13.68-3.06l.54,8.73c-4.77,2-10.62,2.25-14.31,2.25-19.89,0-33.12-12.78-33.12-32.76,0-19.35,14-32.22,33.21-32.22a34.66,34.66,0,0,1,14.13,2.7Z" style="fill:#fff"/><path d="M289.89,361.1h9.45l26.55,62.82h-9.81l-6.39-15.84H278.91l-6.39,15.84h-9.45Zm4.41,8.46L281.79,400.7h25Z" style="fill:#fff"/><path d="M347.94,361.1h16.47c12.87,0,23.58,4.5,23.58,18.81,0,13.95-10.89,18.9-22.23,18.9h-8.82v25.11h-9Zm9,29.79h8.91c5.58,0,12.6-2.79,12.6-11.07,0-7.92-8.28-10.8-13.86-10.8h-7.65Z" style="fill:#fff"/><path d="M412,361.1h9v62.82h-9Z" style="fill:#fff"/><path d="M463,369H443.52V361.1h48.06V369H472v54.9h-9Z" style="fill:#fff"/><path d="M529,361.1h9.45L565,423.92h-9.81l-6.39-15.84H518l-6.39,15.84H502.2Zm4.41,8.46L520.92,400.7h25Z" style="fill:#fff"/><path d="M587.52,361.1h9V416H622.8v7.92H587.52Z" style="fill:#fff"/></svg>
