<svg xmlns="http://www.w3.org/2000/svg" width="24" height="24" viewBox="0 0 24 24">
  <path fill="#cc3b33" fill-rule="evenodd" d="M12,10.7142857 L21,10.7142857 L21,21 L11.3571429,21 L3,21 L3,3 L12,3 L12,10.7142857 Z M12,12 L12,19.7142857 L19.7142857,19.7142857 L19.7142857,12 L12,12 Z M4.28571429,4.92857143 L4.28571429,7.5 L6.85714286,7.5 L6.85714286,4.92857143 L4.28571429,4.92857143 Z M4.28571429,8.78571429 L4.28571429,11.3571429 L6.85714286,11.3571429 L6.85714286,8.78571429 L4.28571429,8.78571429 Z M4.28571429,12.6428571 L4.28571429,15.2142857 L6.85714286,15.2142857 L6.85714286,12.6428571 L4.28571429,12.6428571 Z M4.28571429,16.5 L4.28571429,19.0714286 L6.85714286,19.0714286 L6.85714286,16.5 L4.28571429,16.5 Z M8.14285714,4.92857143 L8.14285714,7.5 L10.7142857,7.5 L10.7142857,4.92857143 L8.14285714,4.92857143 Z M8.14285714,8.78571429 L8.14285714,11.3571429 L10.7142857,11.3571429 L10.7142857,8.78571429 L8.14285714,8.78571429 Z M8.14285714,12.6428571 L8.14285714,15.2142857 L10.7142857,15.2142857 L10.7142857,12.6428571 L8.14285714,12.6428571 Z M8.14285714,16.5 L8.14285714,19.0714286 L10.7142857,19.0714286 L10.7142857,16.5 L8.14285714,16.5 Z M12.6428571,12.6428571 L15.2142857,12.6428571 L15.2142857,15.2142857 L12.6428571,15.2142857 L12.6428571,12.6428571 Z M12.6428571,16.5 L15.2142857,16.5 L15.2142857,19.0714286 L12.6428571,19.0714286 L12.6428571,16.5 Z M16.5,12.6428571 L19.0714286,12.6428571 L19.0714286,15.2142857 L16.5,15.2142857 L16.5,12.6428571 Z M16.5,16.5 L19.0714286,16.5 L19.0714286,19.0714286 L16.5,19.0714286 L16.5,16.5 Z"/>
</svg>
