<?xml version="1.0" encoding="utf-8"?>
<!-- Generator: Adobe Illustrator 22.0.1, SVG Export Plug-In . SVG Version: 6.00 Build 0)  -->
<svg version="1.1" id="Layer_1" xmlns="http://www.w3.org/2000/svg" xmlns:xlink="http://www.w3.org/1999/xlink" x="0px" y="0px"
	 viewBox="0 0 90 90" style="enable-background:new 0 0 90 90;" xml:space="preserve">
<style type="text/css">
	.st0{fill:#FFFFFF;}
	.st1{fill:#194F7F;}
</style>
<g>
	<path class="st0" d="M5.4,9.9h25.2l6.6,6.6v4.8h17.2l6.8,6.8v5.1h17.7l6.6,6.6v40.9H53.3V69.3h-24V57.2H4.9"/>
	<path class="st1" d="M27,55H7V11h21v6c0,0.6,0.4,1,1,1h6v1h4v-4c0-0.5-0.2-1-0.6-1.4l-6-6C32,7.2,31.5,7,31,7H5C3.9,7,3,7.9,3,9v48
		c0,1.1,0.9,2,2,2h22V55z M30,11h0.2l4.8,4.8V16h-5V11z"/>
	<path class="st1" d="M27,50h-1V28c0-0.3-0.2-0.5-0.5-0.5h-3c-0.3,0-0.5,0.2-0.5,0.5v22h-1V35c0-0.3-0.2-0.5-0.5-0.5h-3
		c-0.3,0-0.5,0.2-0.5,0.5v15h-1V38c0-0.3-0.2-0.5-0.5-0.5h-3c-0.3,0-0.5,0.2-0.5,0.5v12h-1V23c0-0.6-0.4-1-1-1s-1,0.4-1,1v28
		c0,0.6,0.4,1,1,1h17V50z M15,50h-2V38.5h2V50z M20,50h-2V35.5h2V50z M25,50h-2V28.5h2V50z M51,67H31V23h21v6c0,0.6,0.4,1,1,1h6v1h4
		v-4c0-0.5-0.2-1-0.6-1.4l-6-6C56,19.2,55.5,19,55,19H29c-1.1,0-2,0.9-2,2v48c0,1.1,0.9,2,2,2h22V67z M54,23h0.2l4.8,4.8V28h-5V23z"
		/>
	<path class="st1" d="M51,62H37.5v-5.5H51v-1H37.5v-5H51v-1H37.5v-5H51v-1H37.5V39H51v-2H37.5v-1H51v-2H33c-0.6,0-1,0.4-1,1v28
		c0,0.6,0.4,1,1,1h18V62z M36.5,62H34v-5.5h2.5V62z M36.5,55.5H34v-5h2.5V55.5z M36.5,49.5H34v-5h2.5V49.5z M36.5,43.5H34V39h2.5
		V43.5z M36.5,37H34v-1h2.5V37z M86.4,37.6l-6-6C80,31.2,79.5,31,79,31H53c-1.1,0-2,0.9-2,2v48c0,1.1,0.9,2,2,2h32c1.1,0,2-0.9,2-2
		V39C87,38.5,86.8,38,86.4,37.6z M83,39.8V40h-5v-5h0.2L83,39.8z M55,79V35h21v6c0,0.6,0.4,1,1,1h6v37H55z"/>
	<path class="st1" d="M81,75H58v-3.3l3.1-3.1l3.7,1.8c0.2,0.1,0.5,0,0.7-0.2l3.8-7.6l3.6,0.9c0.2,0.1,0.5-0.1,0.6-0.3l3.5-7.9
		l0.5,1.4c0.1,0.3,0.4,0.4,0.6,0.3c0.3-0.1,0.4-0.4,0.3-0.6l-1-2.6v-0.1l0,0c0,0,0,0,0-0.1l0,0l0,0h-0.1l0,0h-0.1H77h-0.1l0,0l0,0
		l-2.6,1c-0.1,0-0.2,0.1-0.3,0.3c-0.1,0.1-0.1,0.3,0,0.4c0,0.1,0.1,0.2,0.3,0.3s0.3,0.1,0.4,0l1.4-0.5l-3.3,7.5l-3.6-0.9
		c-0.2-0.1-0.5,0-0.6,0.2l-3.8,7.6l-3.6-1.8c-0.2-0.1-0.4-0.1-0.6,0.1L58,70.3V48c0-0.6-0.4-1-1-1s-1,0.4-1,1v28c0,0.6,0.4,1,1,1h24
		c0.6,0,1-0.4,1-1S81.6,75,81,75z"/>
</g>
</svg>
