<?xml version="1.0" encoding="utf-8"?>
<!-- Generator: Adobe Illustrator 22.0.1, SVG Export Plug-In . SVG Version: 6.00 Build 0)  -->
<svg version="1.1" id="Layer_1" xmlns="http://www.w3.org/2000/svg" xmlns:xlink="http://www.w3.org/1999/xlink" x="0px" y="0px"
	 viewBox="0 0 90 90" style="enable-background:new 0 0 90 90;" xml:space="preserve">
<style type="text/css">
	.st0{fill:#FFFFFF;}
	.st1{fill:#194F7F;}
</style>
<g>
	<path class="st0" d="M40,13.5h10v2H40 M64,65.5H26v-2h38 M75,59.5H15v-40h60"/>
	<path class="st1" d="M77,15.5H52v-3c0-0.6-0.4-1-1-1h-4v-6c0-1.1-0.9-2-2-2s-2,0.9-2,2v6h-4c-0.6,0-1,0.4-1,1v3H13
		c-1.1,0-2,0.9-2,2v44c0,1.1,0.9,2,2,2h11v3c0,0.6,0.4,1,1,1h7.7l-9.4,16c-0.4,0.6-0.4,1.4,0,2s1,1,1.7,1s1.4-0.4,1.7-1l10-17
		c0.2-0.3,0.3-0.7,0.3-1h6v17c0,1.1,0.9,2,2,2c1.1,0,2-0.9,2-2v-17h6c0,0.4,0.1,0.7,0.3,1l10,17c0.4,0.6,1,1,1.7,1s1.4-0.4,1.7-1
		c0.4-0.6,0.3-1.4,0-2l-9.4-16H65c0.6,0,1-0.4,1-1v-3h11c1.1,0,2-0.9,2-2v-44C79,16.4,78.1,15.5,77,15.5z M40,13.5h10v2H40V13.5z
		 M64,65.5H26v-2h38V65.5z M75,59.5H15v-40h60V59.5z"/>
	<path class="st1" d="M29,55.5c0,0.6,0.4,1,1,1c7.7,0,14.7-2.7,19.8-7.6c4.8-4.7,7.6-10.9,8.1-18l2.4,2.4c0.3,0.3,0.6,0.4,1,0.3
		s0.6-0.4,0.7-0.7s0-0.7-0.3-1l-4-4c0,0-0.1-0.1-0.2-0.1h-0.1c-0.1,0-0.1-0.1-0.2-0.1h-0.1c-0.1,0-0.1,0-0.2,0s-0.1,0-0.2,0h-0.1
		c-0.1,0-0.1,0-0.2,0.1h-0.1c-0.1,0-0.1,0.1-0.2,0.1l-4,4c-0.4,0.4-0.4,1,0,1.4s1,0.4,1.4,0l2.2-2.2c-0.5,6.5-3.1,12.2-7.5,16.4
		c-4.5,4.5-11,7-18.2,7C29.4,54.5,29,54.9,29,55.5z"/>
	<path class="st1" d="M40,47c1.9,0,3.5-1.6,3.5-3.5S41.9,40,40,40s-3.5,1.6-3.5,3.5S38.1,47,40,47z M40,41c1.4,0,2.5,1.1,2.5,2.5
		S41.4,46,40,46s-2.5-1.1-2.5-2.5S38.6,41,40,41z M25,32c1.9,0,3.5-1.6,3.5-3.5S26.9,25,25,25s-3.5,1.6-3.5,3.5S23.1,32,25,32z
		 M25,26c1.4,0,2.5,1.1,2.5,2.5S26.4,31,25,31s-2.5-1.1-2.5-2.5S23.6,26,25,26z M60.5,41.5c0,1.9,1.6,3.5,3.5,3.5s3.5-1.6,3.5-3.5
		S65.9,38,64,38S60.5,39.6,60.5,41.5z M64,39c1.4,0,2.5,1.1,2.5,2.5S65.4,44,64,44s-2.5-1.1-2.5-2.5S62.6,39,64,39z M40.5,33.5
		c0,0.6,0.4,1.1,0.9,1.4c0.5,0.2,1.2,0.1,1.6-0.3l1-1l1,1c0.6,0.6,1.5,0.6,2.1,0s0.6-1.5,0-2.1l-1-1l1-1c0.4-0.4,0.5-0.9,0.4-1.4
		s-0.5-0.9-1-1s-1,0-1.4,0.4l-1,1l-1-1c-0.4-0.4-0.9-0.5-1.4-0.4s-0.9,0.5-1,1s0,1,0.4,1.4l1,1l-1,1C40.7,32.8,40.5,33.2,40.5,33.5z
		 M41.6,33.2l1.4-1.4c0.1-0.1,0.1-0.2,0.1-0.4S43,31.1,43,31l-1.4-1.4c-0.2-0.2-0.2-0.5,0-0.7s0.5-0.2,0.7,0l1.4,1.4
		c0.2,0.2,0.5,0.2,0.7,0l1.4-1.4c0.1-0.1,0.3-0.2,0.4-0.1s0.3,0.2,0.3,0.3c0,0.2,0,0.3-0.1,0.4L45,31.1c-0.1,0.1-0.1,0.2-0.1,0.4
		s0.1,0.3,0.1,0.4l1.4,1.4c0.2,0.2,0.2,0.5,0,0.7s-0.5,0.2-0.7,0l-1.3-1.5c-0.1-0.1-0.2-0.1-0.4-0.1s-0.3,0.1-0.4,0.1l-1.4,1.4
		c-0.1,0.1-0.3,0.2-0.5,0.1s-0.3-0.2-0.3-0.3S41.5,33.3,41.6,33.2L41.6,33.2z M60.1,47.7c-0.6-0.6-1.5-0.6-2.1,0l-1,1l-1-1
		c-0.4-0.4-0.9-0.5-1.4-0.4s-0.9,0.5-1,1s0,1,0.4,1.4l1,1l-1,1c-0.6,0.6-0.6,1.5,0,2.1s1.5,0.6,2.1,0l1-1l1,1c0.6,0.6,1.5,0.6,2.1,0
		s0.6-1.5,0-2.1l-1-1l1-1C60.6,49.2,60.6,48.2,60.1,47.7z M59.4,49L58,50.4c-0.1,0.1-0.1,0.2-0.1,0.4s0.1,0.3,0.1,0.4l1.4,1.4
		c0.2,0.2,0.2,0.5,0,0.7s-0.5,0.2-0.7,0l-1.4-1.4c-0.2-0.2-0.5-0.2-0.7,0l-1.4,1.4c-0.2,0.2-0.5,0.2-0.7,0s-0.2-0.5,0-0.7l1.4-1.4
		C56,51.1,56,51,56,50.8s0.1-0.3,0-0.4L54.6,49c-0.2-0.2-0.2-0.5,0-0.7s0.5-0.2,0.7,0l1.4,1.4c0.2,0.2,0.5,0.2,0.7,0l1.4-1.4
		c0.1-0.1,0.3-0.2,0.4-0.1s0.3,0.2,0.3,0.3S59.5,48.9,59.4,49z M27,45.4l-1-1c-0.4-0.4-0.9-0.5-1.4-0.4s-0.9,0.5-1,1s0,1,0.4,1.4
		l1,1l-1,1c-0.6,0.6-0.6,1.5,0,2.1s1.5,0.6,2.1,0l1-1l1,1c0.6,0.6,1.5,0.6,2.1,0s0.6-1.5,0-2.1l-1-1l1-1c0.4-0.4,0.5-0.9,0.4-1.4
		s-0.5-0.9-1-1s-1,0-1.4,0.4C28,44.4,27,45.4,27,45.4z M29.4,45.1c0.2,0.2,0.2,0.5,0,0.7L28,47.1c-0.1,0.1-0.1,0.2-0.1,0.4
		s0.1,0.3,0.1,0.4l1.4,1.4c0.2,0.2,0.2,0.5,0,0.7s-0.5,0.2-0.7,0l-1.3-1.5c-0.1-0.1-0.2-0.1-0.4-0.1s-0.3,0.1-0.4,0.1l-1.4,1.4
		c-0.2,0.2-0.5,0.2-0.7,0s-0.2-0.5,0-0.7l1.4-1.4c0.1-0.1,0.1-0.2,0.1-0.4s-0.1-0.3-0.1-0.4l-1.4-1.4c-0.1-0.1-0.2-0.3-0.1-0.4
		s0.2-0.3,0.3-0.3c0.2,0,0.3,0,0.4,0.1l1.4,1.4c0.1,0.1,0.2,0.1,0.4,0.1s0.3-0.1,0.4-0.1l1.4-1.4C28.9,44.9,29.2,45,29.4,45.1z"/>
</g>
</svg>
