<?xml version="1.0" encoding="utf-8"?>
<!-- Generator: Adobe Illustrator 22.0.1, SVG Export Plug-In . SVG Version: 6.00 Build 0)  -->
<svg version="1.1" id="Layer_1" xmlns="http://www.w3.org/2000/svg" xmlns:xlink="http://www.w3.org/1999/xlink" x="0px" y="0px"
	 viewBox="0 0 90 90" style="enable-background:new 0 0 90 90;" xml:space="preserve">
<style type="text/css">
	.st0{fill:#FFFFFF;}
	.st1{fill:#194F7F;}
</style>
<g>
	<path class="st0" d="M42.8,75.7V27.2h37v48.5H42.8z M10.7,75.7V14.3h28.5v61.4H10.7z"/>
	<path class="st1" d="M32.9,27.8h-16c-0.5,0-0.9-0.4-0.9-0.9s0.4-0.9,0.9-0.9h16c0.5,0,0.9,0.4,0.9,0.9S33.4,27.8,32.9,27.8z
		 M57.8,39.8h-8c-0.5,0-0.9-0.4-0.9-0.9s0.4-0.9,0.9-0.9h8c0.5,0,0.9,0.4,0.9,0.9S58.2,39.8,57.8,39.8z M72.8,39.8h-8
		c-0.5,0-0.9-0.4-0.9-0.9s0.4-0.9,0.9-0.9h8c0.5,0,0.9,0.4,0.9,0.9S73.2,39.8,72.8,39.8z M57.8,51.8h-8c-0.5,0-0.9-0.4-0.9-0.9
		s0.4-0.9,0.9-0.9h8c0.5,0,0.9,0.4,0.9,0.9S58.2,51.8,57.8,51.8z M72.8,51.8h-8c-0.5,0-0.9-0.4-0.9-0.9s0.4-0.9,0.9-0.9h8
		c0.5,0,0.9,0.4,0.9,0.9S73.2,51.8,72.8,51.8z M57.8,63.8h-8c-0.5,0-0.9-0.4-0.9-0.9s0.4-0.9,0.9-0.9h8c0.5,0,0.9,0.4,0.9,0.9
		S58.2,63.8,57.8,63.8z M72.8,63.8h-8c-0.5,0-0.9-0.4-0.9-0.9s0.4-0.9,0.9-0.9h8c0.5,0,0.9,0.4,0.9,0.9S73.2,63.8,72.8,63.8z
		 M32.9,39.8h-16c-0.5,0-0.9-0.4-0.9-0.9s0.4-0.9,0.9-0.9h16c0.5,0,0.9,0.4,0.9,0.9S33.4,39.8,32.9,39.8z M32.9,51.8h-16
		c-0.5,0-0.9-0.4-0.9-0.9s0.4-0.9,0.9-0.9h16c0.5,0,0.9,0.4,0.9,0.9S33.4,51.8,32.9,51.8z M32.9,63.8h-16c-0.5,0-0.9-0.4-0.9-0.9
		s0.4-0.9,0.9-0.9h16c0.5,0,0.9,0.4,0.9,0.9S33.4,63.8,32.9,63.8z"/>
	<path class="st1" d="M86.4,75.7h-3.2V25.5c0-1-0.8-1.8-1.8-1.8h-6.5v-7.3c0-1-0.8-1.8-1.8-1.8H49.2c-1,0-1.8,0.8-1.8,1.8v7.3h-4.8
		V12.5c0-1-0.8-1.8-1.8-1.8h-32c-1,0-1.8,0.8-1.8,1.8v63.2H3.8c-1,0-1.8,0.8-1.8,1.8s0.8,1.8,1.8,1.8h82.3c1,0,1.8-0.8,1.8-1.8
		S87.4,75.7,86.4,75.7z M51.1,18.2h20.5v5.5H51.1V18.2z M10.7,75.7V14.3h28.5v61.4H10.7z M42.8,75.7V27.2h37v48.5H42.8z"/>
	<path class="st0" d="M51.1,18.2h20.5v5.5H51.1V18.2z"/>
</g>
</svg>
