<?xml version="1.0" encoding="utf-8"?>
<!-- Generator: Adobe Illustrator 22.0.1, SVG Export Plug-In . SVG Version: 6.00 Build 0)  -->
<svg version="1.1" id="Layer_1" xmlns="http://www.w3.org/2000/svg" xmlns:xlink="http://www.w3.org/1999/xlink" x="0px" y="0px"
	 viewBox="0 0 90 90" style="enable-background:new 0 0 90 90;" xml:space="preserve">
<style type="text/css">
	.st0{fill:#FFFFFF;}
	.st1{fill:#194F7F;}
</style>
<g>
	<path class="st0" d="M80.5,71.5c2,0,3.5,1.7,3.5,3.6v5.3c0,2-1.6,3.5-3.5,3.5h-71c-2,0-3.5-1.6-3.5-3.5v-5.3c0-2,1.6-3.6,3.5-3.6
		h1.7v-1.7c0-0.5,0.2-0.9,0.5-1.3c0.3-0.3,0.8-0.5,1.2-0.5V37c-0.5,0-0.9-0.2-1.2-0.5c-0.3-0.3-0.5-0.8-0.5-1.3v-1.8H8.6
		c-0.8,0-1.5-0.5-1.7-1.3s0.1-1.6,0.7-2L44,6.3c0.6-0.4,1.4-0.4,2,0l36.3,23.9c0.7,0.4,0.9,1.2,0.7,2s-0.9,1.3-1.7,1.3h-2.6v1.8
		c0,0.5-0.2,0.9-0.5,1.3C77.9,36.8,77.5,37,77,37v31c0.5,0,0.9,0.2,1.2,0.5s0.5,0.8,0.5,1.3v1.7C78.8,71.5,80.5,71.5,80.5,71.5z
		 M22,37v31c0.5,0,0.9,0.2,1.2,0.5s0.5,0.8,0.5,1.3v1.7h1.8v-1.7c0-0.5,0.2-0.9,0.5-1.3s0.8-0.5,1.2-0.5V37c-0.5,0-0.9-0.2-1.2-0.5
		s-0.5-0.8-0.5-1.3v-1.8h-1.8v1.8c0,0.5-0.2,0.9-0.5,1.3C22.9,36.8,22.5,37,22,37z M36.2,37v31c0.8,0,1.8,0.8,1.8,1.8v1.7h14v-1.7
		c0-1,1-1.8,1.8-1.8V37C53,37,52,36.2,52,35.2v-1.8H38v1.8C38,36.2,37,37,36.2,37z M62.8,37v31c0.5,0,0.9,0.2,1.2,0.5
		s0.5,0.8,0.5,1.3v1.7h1.8v-1.7c0-0.5,0.2-0.9,0.5-1.3S67.5,68,68,68V37c-0.5,0-0.9-0.2-1.2-0.5s-0.5-0.8-0.5-1.3v-1.8h-1.8v1.8
		c0,0.5-0.2,0.9-0.5,1.3C63.7,36.8,63.2,37,62.8,37z M45,23.7c1.5,0,2.7-1.2,2.7-2.7s-1.2-2.7-2.7-2.7s-2.7,1.2-2.7,2.7
		S43.5,23.7,45,23.7z"/>
	<path class="st1" d="M80.5,71.5h-1.7v-1.7c0-0.5-0.2-0.9-0.5-1.3S77.5,68,77,68V37c0.5,0,0.9-0.2,1.2-0.5s0.5-0.8,0.5-1.3v-1.8h2.6
		c0.8,0,1.5-0.5,1.7-1.3s-0.1-1.6-0.7-2L46,6.3c-0.6-0.4-1.4-0.4-2,0L7.7,30.2c-0.7,0.4-1,1.2-0.7,2c0.2,0.8,0.9,1.3,1.7,1.3h2.6
		v1.8c0,0.5,0.2,0.9,0.5,1.3c0.3,0.3,0.8,0.5,1.2,0.5v31c-0.5,0-0.9,0.2-1.2,0.5c-0.3,0.3-0.5,0.8-0.5,1.3v1.7H9.6
		c-2,0-3.5,1.7-3.5,3.6v5.3c0,2,1.6,3.5,3.5,3.5h70.9c2,0,3.5-1.6,3.5-3.5v-5.3C84,73.2,82.4,71.5,80.5,71.5z M22,37
		c0.5,0,0.9-0.2,1.2-0.5s0.5-0.8,0.5-1.3v-1.8h1.8v1.8c0,0.5,0.2,0.9,0.5,1.3c0.3,0.3,0.8,0.5,1.2,0.5v31c-0.5,0-0.9,0.2-1.2,0.5
		s-0.5,0.8-0.5,1.3v1.7h-1.8v-1.7c0-0.5-0.2-0.9-0.5-1.3S22.5,68,22,68V37z M20.2,37v31H18V37H20.2z M36.2,71.5h-9v-1.8h9V71.5z
		 M29,37h2.2v31H29V37z M34.2,68h-2V37h2V68z M27.2,35.2v-1.8h9v1.8H27.2z M36.2,37c0.8,0,1.8-0.8,1.8-1.8v-1.8h14v1.8
		c0,1,1,1.8,1.8,1.8v31C53,68,52,68.8,52,69.8v1.7H38v-1.7c0-1-1-1.8-1.8-1.8V37z M62.8,71.5h-9v-1.8h9V71.5z M55.8,37h2v31h-2V37z
		 M61,68h-2.2V37H61V68z M53.8,35.2v-1.8h9v1.8H53.8z M62.8,37c0.5,0,0.9-0.2,1.2-0.5s0.5-0.8,0.5-1.3v-1.8h1.8v1.8
		c0,0.5,0.2,0.9,0.5,1.3c0.3,0.3,0.8,0.5,1.2,0.5v31c-0.5,0-0.9,0.2-1.2,0.5s-0.5,0.8-0.5,1.3v1.7h-1.8v-1.7c0-0.5-0.2-0.9-0.5-1.3
		S63.2,68,62.8,68V37z M69.8,68V37H72v31H69.8z M77,71.5h-9v-1.8h9V71.5z M75.2,68H73V37h2.2V68z M77,35.2h-9v-1.8h9V35.2z M45,10
		l30.4,20H14.6L45,10z M13,33.5h9v1.8h-9V33.5z M14.8,37H17v31h-2.2V37z M13,69.8h9v1.8h-9V69.8z M80.5,80.5h-71v-5.2h71V80.5z"/>
	<path class="st1" d="M44.1,53.6l-0.5,4.6c-1-0.1-2.2-0.2-3.4-0.4l-0.3,2.8l0.5,0.1c1,0.2,1.9,0.4,2.9,0.5L43,64.3
		c0,0.1,0.6,0.2,1.7,0.2l0.3-3.1l0,0c1.4,0,2.8-0.5,3.8-1.5c1-0.9,1.5-2.4,1.5-4.2c0-1.4-0.3-2.5-0.9-3.2s-1.7-1.3-3.3-1.9l0.5-4.2
		c1,0.1,2,0.2,3.2,0.3L50,44l-0.4-0.1c-0.9-0.2-1.8-0.3-2.7-0.4l0.4-3.8h-1.7l-0.4,3.5h-0.3c-1.6,0-2.9,0.5-3.8,1.3
		s-1.4,2.2-1.4,3.9c0,1.3,0.3,2.4,1,3.2S42.5,53.1,44.1,53.6z M45.8,54.2c0.4,0.2,0.8,0.4,1.1,0.8c0.2,0.3,0.3,0.7,0.3,1
		c0,1.3-0.6,2.1-1.9,2.2L45.8,54.2z M44.9,46.4l-0.4,3.7c-0.5-0.2-1-0.5-1.4-0.8c-0.2-0.3-0.4-0.7-0.3-1
		C42.8,47.1,43.5,46.5,44.9,46.4L44.9,46.4z M45,16.6c-2.4,0-4.4,2-4.4,4.4s2,4.4,4.4,4.4s4.4-2,4.4-4.4S47.4,16.6,45,16.6z
		 M45,23.7c-1.5,0-2.7-1.2-2.7-2.7s1.2-2.7,2.7-2.7s2.7,1.2,2.7,2.7S46.5,23.7,45,23.7z"/>
</g>
</svg>
