<svg>
  <defs>

    <symbol id="address">
      <path fill="#1F1F1F" fill-rule="evenodd" d="M12,10.7142857 L21,10.7142857 L21,21 L11.3571429,21 L3,21 L3,3 L12,3 L12,10.7142857 Z M12,12 L12,19.7142857 L19.7142857,19.7142857 L19.7142857,12 L12,12 Z M4.28571429,4.92857143 L4.28571429,7.5 L6.85714286,7.5 L6.85714286,4.92857143 L4.28571429,4.92857143 Z M4.28571429,8.78571429 L4.28571429,11.3571429 L6.85714286,11.3571429 L6.85714286,8.78571429 L4.28571429,8.78571429 Z M4.28571429,12.6428571 L4.28571429,15.2142857 L6.85714286,15.2142857 L6.85714286,12.6428571 L4.28571429,12.6428571 Z M4.28571429,16.5 L4.28571429,19.0714286 L6.85714286,19.0714286 L6.85714286,16.5 L4.28571429,16.5 Z M8.14285714,4.92857143 L8.14285714,7.5 L10.7142857,7.5 L10.7142857,4.92857143 L8.14285714,4.92857143 Z M8.14285714,8.78571429 L8.14285714,11.3571429 L10.7142857,11.3571429 L10.7142857,8.78571429 L8.14285714,8.78571429 Z M8.14285714,12.6428571 L8.14285714,15.2142857 L10.7142857,15.2142857 L10.7142857,12.6428571 L8.14285714,12.6428571 Z M8.14285714,16.5 L8.14285714,19.0714286 L10.7142857,19.0714286 L10.7142857,16.5 L8.14285714,16.5 Z M12.6428571,12.6428571 L15.2142857,12.6428571 L15.2142857,15.2142857 L12.6428571,15.2142857 L12.6428571,12.6428571 Z M12.6428571,16.5 L15.2142857,16.5 L15.2142857,19.0714286 L12.6428571,19.0714286 L12.6428571,16.5 Z M16.5,12.6428571 L19.0714286,12.6428571 L19.0714286,15.2142857 L16.5,15.2142857 L16.5,12.6428571 Z M16.5,16.5 L19.0714286,16.5 L19.0714286,19.0714286 L16.5,19.0714286 L16.5,16.5 Z"/>
    </symbol>

    <symbol id="arrow">
      <polygon fill="#1F1F1F" fill-rule="evenodd" points="18.115 18.885 11.245 12 18.115 5.115 16 3 7 12 16 21" transform="rotate(-180 12.557 12)"/>
    </symbol>

    <symbol id="email">
      <path fill="#1F1F1F" fill-rule="evenodd" d="M21,6.91431716 L12,11.7857143 L3,6.91431716 L3,6 L21,6 L21,6.91431716 Z M21,8.34473968 L21,18.8571429 L3,18.8571429 L3,8.34473968 L11.5984103,12.9305585 C11.8331937,13.1183853 12.1668063,13.1183853 12.4015897,12.9305585 L21,8.34473968 Z"/>
    </symbol>

    <symbol id="phone">
      <path fill="#1F1F1F" fill-rule="evenodd" d="M7.21777778,10.9244444 C8.49777778,13.44 10.56,15.4933333 13.0755556,16.7822222 L15.0311111,14.8266667 C15.2711111,14.5866667 15.6266667,14.5066667 15.9377778,14.6133333 C16.9333333,14.9422222 18.0088889,15.12 19.1111111,15.12 C19.6,15.12 20,15.52 20,16.0088889 L20,19.1111111 C20,19.6 19.6,20 19.1111111,20 C10.7644444,20 4,13.2355556 4,4.88888889 C4,4.4 4.4,4 4.88888889,4 L8,4 C8.48888889,4 8.88888889,4.4 8.88888889,4.88888889 C8.88888889,6 9.06666667,7.06666667 9.39555556,8.06222222 C9.49333333,8.37333333 9.42222222,8.72 9.17333333,8.96888889 L7.21777778,10.9244444 L7.21777778,10.9244444 Z"/>
    </symbol>

    <symbol id="send">
      <polygon fill="#1F1F1F" fill-rule="evenodd" points="4.008 18.714 20 11.857 4.008 5 4 10.333 15.429 11.857 4 13.381"/>
    </symbol>

    <symbol id="vcard">
      <path fill="#1F1F1F" fill-rule="evenodd" d="M19.5,5 C20.325,5 21,5.70714286 21,6.57142857 L20.9925,17.5714286 C20.9925,18.4357143 20.325,19.1428571 19.5,19.1428571 L4.5,19.1428571 C3.675,19.1428571 3,18.4357143 3,17.5714286 L3,6.57142857 C3,5.70714286 3.675,5 4.5,5 L19.5,5 Z M9,7.57142857 C7.755,7.57142857 6.75,8.57642857 6.75,9.82142857 C6.75,11.0664286 7.755,12.0714286 9,12.0714286 C10.245,12.0714286 11.25,11.0664286 11.25,9.82142857 C11.25,8.57642857 10.245,7.57142857 9,7.57142857 Z M13.5,16.5714286 L13.5,15.8214286 C13.5,14.3214286 10.5,13.4964286 9,13.4964286 C7.5,13.4964286 4.5,14.3214286 4.5,15.8214286 L4.5,16.5714286 L13.5,16.5714286 Z M13.2857143,7.57142857 L13.2857143,8.21428571 L19.7142857,8.21428571 L19.7142857,7.57142857 L13.2857143,7.57142857 Z M13.2857143,9.5 L13.2857143,10.1428571 L19.7142857,10.1428571 L19.7142857,9.5 L13.2857143,9.5 Z M13.2857143,11.4285714 L13.2857143,12.0714286 L19.7142857,12.0714286 L19.7142857,11.4285714 L13.2857143,11.4285714 Z"/>
    </symbol>

  </defs>
</svg>
