<svg xmlns="http://www.w3.org/2000/svg" width="24" height="24" viewBox="0 0 24 24">
  <path fill="#cc3b33" fill-rule="evenodd" d="M19.5,5 C20.325,5 21,5.70714286 21,6.57142857 L20.9925,17.5714286 C20.9925,18.4357143 20.325,19.1428571 19.5,19.1428571 L4.5,19.1428571 C3.675,19.1428571 3,18.4357143 3,17.5714286 L3,6.57142857 C3,5.70714286 3.675,5 4.5,5 L19.5,5 Z M9,7.57142857 C7.755,7.57142857 6.75,8.57642857 6.75,9.82142857 C6.75,11.0664286 7.755,12.0714286 9,12.0714286 C10.245,12.0714286 11.25,11.0664286 11.25,9.82142857 C11.25,8.57642857 10.245,7.57142857 9,7.57142857 Z M13.5,16.5714286 L13.5,15.8214286 C13.5,14.3214286 10.5,13.4964286 9,13.4964286 C7.5,13.4964286 4.5,14.3214286 4.5,15.8214286 L4.5,16.5714286 L13.5,16.5714286 Z M13.2857143,7.57142857 L13.2857143,8.21428571 L19.7142857,8.21428571 L19.7142857,7.57142857 L13.2857143,7.57142857 Z M13.2857143,9.5 L13.2857143,10.1428571 L19.7142857,10.1428571 L19.7142857,9.5 L13.2857143,9.5 Z M13.2857143,11.4285714 L13.2857143,12.0714286 L19.7142857,12.0714286 L19.7142857,11.4285714 L13.2857143,11.4285714 Z"/>
</svg>
