<?xml version="1.0" standalone="no"?>
<!DOCTYPE svg PUBLIC "-//W3C//DTD SVG 20010904//EN"
 "http://www.w3.org/TR/2001/REC-SVG-20010904/DTD/svg10.dtd">
<svg version="1.0" xmlns="http://www.w3.org/2000/svg"
 width="700.000000pt" height="700.000000pt" viewBox="0 0 700.000000 700.000000"
 preserveAspectRatio="xMidYMid meet">
<metadata>
Created by potrace 1.11, written by Peter Selinger 2001-2013
</metadata>
<g transform="translate(0.000000,700.000000) scale(0.100000,-0.100000)"
fill="#000000" stroke="none">
<path d="M2190 5835 c-641 -641 -1163 -1165 -1160 -1166 21 -4 4634 -3 4641 1
4 3 -515 529 -1154 1168 l-1162 1162 -1165 -1165z"/>
<path d="M5689 4625 c0 -22 -1 -348 -2 -725 l-2 -685 -1165 -5 -1165 -5 -1
-1603 0 -1603 1750 1751 1751 1750 -582 582 -583 583 -1 -40z"/>
<path d="M870 2485 c399 -399 727 -725 730 -725 3 0 5 325 5 722 l-1 723 -729
3 -730 2 725 -725z"/>
</g>
</svg>
